<?xml version="1.0" encoding="UTF-8" standalone="no" ?>
<!DOCTYPE svg PUBLIC "-//W3C//DTD SVG 1.1//EN" "http://www.w3.org/Graphics/SVG/1.1/DTD/svg11.dtd">
<svg xmlns="http://www.w3.org/2000/svg" xmlns:xlink="http://www.w3.org/1999/xlink" version="1.1" width="500" height="500" viewBox="0 0 500 500" xml:space="preserve">
<desc>Created with Fabric.js 5.3.0</desc>
<defs>
</defs>
<g transform="matrix(1.0053705755 0 0 1.0053705755 249.1859660863 250.0998931417)" id="Uit2fjI1jwa3UCWkhFbgE"  >
<path style="stroke: rgb(2,218,109); stroke-width: 0; stroke-dasharray: none; stroke-linecap: butt; stroke-dashoffset: 0; stroke-linejoin: miter; stroke-miterlimit: 4; fill: rgb(247,47,58); fill-rule: nonzero; opacity: 1;" vector-effect="non-scaling-stroke"  transform=" translate(0, 0)" d="M 0 -248.66453 C 137.26282 -248.66453 248.66453 -137.26282000000003 248.66453 0 C 248.66453 137.26282 137.26282000000003 248.66453 0 248.66453 C -137.26282 248.66453 -248.66453 137.26282000000003 -248.66453 0 C -248.66453 -137.26282 -137.26282000000003 -248.66453 0 -248.66453 z" stroke-linecap="round" />
</g>
<g transform="matrix(0.7273639237 0 0 0.727363924 249.9999999766 250)" id="iFSxUyZ6psqMMGiCAmbjZ"  >
<path style="stroke: rgb(127,133,22); stroke-width: 0; stroke-dasharray: none; stroke-linecap: butt; stroke-dashoffset: 0; stroke-linejoin: miter; stroke-miterlimit: 4; fill: rgb(255,255,255); fill-rule: nonzero; opacity: 1;" vector-effect="non-scaling-stroke"  transform=" translate(0, 0)" d="M 0 -254.34311 C 140.39739 -254.34311 254.34311 -140.3974 254.34311 0 C 254.34311 140.39739 140.3974 254.34311 0 254.34311 C -140.39739 254.34311 -254.34311 140.3974 -254.34311 0 C -254.34311 -140.39739 -140.3974 -254.34311 0 -254.34311 z" stroke-linecap="round" />
</g>
<g transform="matrix(1.848 0 0 1.848 250 250.0002569759)" id="ZXaLf9MhrfjQKhL3N6lR0"  >
<path style="stroke: rgb(247,47,58); stroke-width: 0; stroke-dasharray: none; stroke-linecap: butt; stroke-dashoffset: 0; stroke-linejoin: miter; stroke-miterlimit: 4; fill: rgb(247,47,58); fill-rule: nonzero; opacity: 1;" vector-effect="non-scaling-stroke"  transform=" translate(0, 0)" d="M 0 -32.46753 C 17.92208 -32.46753 32.46753 -17.922079999999994 32.46753 0 C 32.46753 17.92208 17.922079999999994 32.46753 0 32.46753 C -17.92208 32.46753 -32.46753 17.922079999999994 -32.46753 0 C -32.46753 -17.92208 -17.922079999999994 -32.46753 0 -32.46753 z" stroke-linecap="round" />
</g>
</svg>